<?xml version="1.0" encoding="UTF-8"?>
<!-- Generator: Adobe Illustrator 23.0.3, SVG Export Plug-In . SVG Version: 6.00 Build 0)  -->
<svg version="1.1" id="Layer_1" xmlns="http://www.w3.org/2000/svg" xmlns:xlink="http://www.w3.org/1999/xlink" x="0px" y="0px" viewBox="0 0 141.7 141.7" style="enable-background:new 0 0 141.7 141.7;" xml:space="preserve">
<style type="text/css">
	.st0{fill:#00A9CE;}
	.st1{fill:#FFFFFF;}
</style>
<title>CSIRO_Solid_RGB</title>
<circle class="st0" cx="70.9" cy="70.9" r="70.9"/>
<path class="st1" d="M31.6,107.9c-6.1,0.1-11.1-4.8-11.2-10.9c0-0.1,0-0.3,0-0.4v-0.1c-0.1-6.2,4.8-11.2,10.9-11.3  c0.2,0,0.3,0,0.5,0c3.2-0.2,6.4,1.1,8.6,3.4l-3.1,3.5c-1.5-1.5-3.5-2.4-5.6-2.5c-3.7,0-6.4,3.1-6.4,6.8v0.1c0,3.8,2.6,6.9,6.4,6.9  c2.5,0,4-1,5.8-2.6l3.1,3.1C38.4,106.6,35.1,108.1,31.6,107.9z"/>
<path class="st1" d="M53.1,107.9c-3.4,0-6.7-1.2-9.3-3.5l2.8-3.4c1.8,1.7,4.1,2.6,6.6,2.7c2,0,3.2-0.8,3.2-2.1v-0.1  c0-1.2-0.8-1.9-4.4-2.8c-4.4-1.1-7.3-2.4-7.3-6.7v-0.1c0-4,3.2-6.6,7.7-6.6c3,0,5.8,0.9,8.1,2.8l-2.5,3.6c-1.6-1.3-3.6-2-5.7-2.2  c-1.9,0-2.8,0.9-2.8,1.9v0.1c0,1.4,0.9,1.9,4.7,2.9c4.5,1.1,7,2.8,7,6.6v0.1C61.1,105.4,57.8,107.9,53.1,107.9z"/>
<path class="st1" d="M66.4,107.5V85.6h4.8v21.9H66.4z"/>
<path class="st1" d="M90.7,107.5l-4.7-7h-3.8v7h-4.8V85.6h10c5.2,0,8.3,2.7,8.3,7.2v0.1c0.1,3.1-1.8,5.8-4.7,6.8l5.4,7.8H90.7z   M90.8,93.1c0-2.1-1.4-3.1-3.8-3.1h-4.8v6.3h4.9C89.5,96.3,90.8,95,90.8,93.1L90.8,93.1z"/>
<path class="st1" d="M110.7,107.9c-6.2,0.2-11.4-4.6-11.6-10.9c0-0.1,0-0.3,0-0.4v-0.1c0.2-6.4,5.5-11.5,12-11.3  c6.2,0.2,11.1,5.1,11.3,11.3v0.1c0,6.3-5.1,11.3-11.3,11.3C111,107.9,110.8,107.9,110.7,107.9z M117.4,96.6c0.1-3.7-2.8-6.8-6.4-6.9  c-0.1,0-0.1,0-0.2,0c-3.6,0-6.6,2.9-6.6,6.5c0,0.1,0,0.2,0,0.3v0.1c-0.1,3.7,2.7,6.8,6.4,6.9c0.1,0,0.1,0,0.2,0  c3.6,0,6.6-2.9,6.6-6.5C117.4,96.8,117.4,96.7,117.4,96.6L117.4,96.6z"/>
<path class="st1" d="M92.6,74.4c0,2.1-1.7,3.8-3.8,3.8c-2.1,0-3.8-1.7-3.8-3.8c0-2.1,1.7-3.8,3.8-3.8c0,0,0,0,0,0  C90.9,70.6,92.6,72.3,92.6,74.4z"/>
<path class="st1" d="M77,26.8c-1.9,0-3.5,1.6-3.5,3.5v30.1c-0.2,1.9,1.2,3.7,3.1,3.9c1.9,0.2,3.7-1.2,3.9-3.1c0-0.2,0-0.5,0-0.7  V30.3C80.5,28.3,78.9,26.8,77,26.8z"/>
<path class="st1" d="M53.4,23.4c-1.9,0-3.5,1.6-3.5,3.5v26.7c-0.2,1.9,1.2,3.7,3.1,3.9c1.9,0.2,3.7-1.2,3.9-3.1c0-0.2,0-0.5,0-0.7  V26.9C56.9,25,55.4,23.4,53.4,23.4z"/>
<path class="st1" d="M100.5,33.5c-1.9,0-3.5,1.6-3.5,3.5v20c0.2,1.9,1.9,3.3,3.9,3.1c1.6-0.2,2.9-1.5,3.1-3.1V37  C104,35.1,102.5,33.5,100.5,33.5z"/>
<path class="st1" d="M41.6,33.5c-1.9,0-3.5,1.6-3.5,3.5c0,0,0,0,0,0v20c0.1,1.9,1.8,3.4,3.8,3.2c1.7-0.1,3.1-1.5,3.2-3.2V37  C45.1,35.1,43.6,33.5,41.6,33.5z"/>
<path class="st1" d="M88.8,16.6c-1.9,0-3.5,1.6-3.5,3.5v43.6c0.2,1.9,1.9,3.3,3.9,3.1c1.6-0.2,2.9-1.5,3.1-3.1V20.1  C92.3,18.2,90.7,16.6,88.8,16.6z"/>
<path class="st1" d="M65.2,16.6c-1.9,0-3.5,1.6-3.5,3.5v30.1c0.2,1.9,1.9,3.3,3.9,3.1c1.6-0.2,2.9-1.5,3.1-3.1V20.1  C68.7,18.2,67.1,16.6,65.2,16.6z"/>
</svg>